<svg xmlns="http://www.w3.org/2000/svg" width="3187.5" height="1640.625"><path d="M0 0h3187.5v1640.625H0z" style="fill:#fff"/><g style="fill:#f76205;fill-opacity:1" transform="translate(93.75 93.75) scale(9.375)"><defs><linearGradient id="a"><stop offset="0" stop-color="#8f5e25"/><stop offset=".5" stop-color="#fbf4a1"/><stop offset="1" stop-color="#8f5e25"/></linearGradient><linearGradient id="b"><stop offset="0" stop-color="#8f5e25"/><stop offset=".5" stop-color="#fbf4a1"/><stop offset="1" stop-color="#8f5e25"/></linearGradient><linearGradient id="c"><stop offset="0" stop-color="#8f5e25"/><stop offset=".5" stop-color="#fbf4a1"/><stop offset="1" stop-color="#8f5e25"/></linearGradient><linearGradient id="d"><stop offset="0" stop-color="#8f5e25"/><stop offset=".5" stop-color="#fbf4a1"/><stop offset="1" stop-color="#8f5e25"/></linearGradient></defs><path fill="url(#a)" d="M0 150h320v5H0z" style="fill:#f76205;fill-opacity:1"/><g fill="url(#b)" style="fill:#f76205;fill-opacity:1" transform="matrix(.27876 0 0 .27876 0 16.147)"><path d="m58.304 11.593.319-.223c.024-.055-.09.028-.319.223zM212.362 131.296l.371.104c.059-.013-.076-.05-.371-.104zM81.208 20.221l.236-.167c.022-.041-.068.024-.236.167zM167.765 67.683l.413.022c.058-.028-.094-.034-.413-.022zM181.237 90.041c.104.007.205.012.314.018.045-.022-.07-.027-.314-.018zM217.056 196.214c.07.065.141.125.213.192.043.012-.04-.061-.213-.192zM189.138 290.9l.07.408c.037.051.014-.099-.07-.408zM170.171 308.828l.049.309c.027.039.01-.073-.049-.309zM106.052 389.842l.031-.639c-.07.492-.084.729-.031.639zM.049 412.807c.014-.326.03-.648.046-.969-.106.746-.126 1.101-.046.969z" style="fill:#f76205;fill-opacity:1"/><g style="fill:#f76205;fill-opacity:1"><path d="M20.255 200.8c-2.908-4.926-3.438-12.383-3.45-13.423-1.656-.655-3.898-3.947-4.285-4.441.062.747.418 5.701 1.889 9.376.155 3.649-.943 18.687 7.403 25.619 4.431-5.831-.664-15.535-1.557-17.131z" style="fill:#f76205;fill-opacity:1"/><path d="M351.28 231.592c-3.039-2.512-8.215-12.719-8.045-12.981-5.549-11.466-12.416-20.384-18.416-26.812 8.141 3.497 18.848 10.606 20.48 11.851-5.139-4.695-5.75-4.479-9.383-12.856-1.172-4.342-2.578-7.926-4.139-10.883.949.982 1.623 1.977 1.928 2.94 4.418 13.357 25.029 17.211 25.029 17.211-10.666-2.71-8.652-10.148-21.074-27.312-8.793-12.147-21.52-19.22-28.494-22.259a2.246 2.246 0 0 0-.025-.076c10.223 4.754 31.145 1.766 31.311.83-7.971.355-23.922-8.886-25.025-9.85a65.673 65.673 0 0 0-6.801-4.451c11.627-.857 29.186 1.27 31.98 1.787-8.807-2.487-9.404-1.877-18.623-9.583-8.561-9.589-16.318-14.332-23.014-16.253 3.594.141 6.328.292 6.572.211 5.971 2.221 23.826.117 20.348.109-3.484-.006-12.736-4.069-12.771-4.344-9.34-4.311-18.238-6.545-25.578-7.676a20.138 20.138 0 0 1-.23-.339c8.844-2.158 20.15-3.3 22.172-3.382-7.402-.386-7.768.202-16.432-4.24-3.908-2.785-7.494-4.782-10.779-6.166 1.449.168 2.678.533 3.58 1.118 12.686 8.017 32.281-2.768 32.281-2.768-10.625 4.992-14.004-2.502-35.863-8.233-.439-.115-.877-.217-1.314-.321 7.23-1.094 13.426-1.683 15.055-1.749-9.748-.511-10.225.266-21.629-5.58-6.6-4.707-12.51-7.713-17.773-9.475 12.053.486 30.301-8.086 30.186-9.038-8.029 2.833-27.172-1.653-28.596-2.294a67.552 67.552 0 0 0-3.592-1.186c6.047-5.521 10.658-11.543 10.354-12.019-4.705 4.761-18.109 8.377-23.18 9.447-12.217-1.252-23.012.974-31.18 3.796 4.746-3.529 9.059-6.51 9.268-6.824 6.865-2.215 21.266-16.616 18.166-14.178-3.102 2.437-14.178 5.318-14.4 5.095-12.387 2.977-22.561 7.783-30.123 12.277 5.15-7.206 14.379-16.149 15.943-17.484-5.678 4.018-5.602 4.66-14.561 6.425-4.492.218-8.293.831-11.514 1.723 1.162-.716 2.277-1.164 3.285-1.256 13.99-1.467 22.15-20.784 22.15-20.784-4.924 9.845-11.762 6.291-31.176 14.767-.389.17-.768.351-1.152.528 4.688-5.007 8.902-9.035 10.063-10.03-7.469 5.286-7.369 6.132-19.159 8.454-7.59.369-13.686 1.589-18.584 3.347 9.153-6.641 17.605-23.545 16.969-24.179-4.264 6.747-20.959 14.563-22.379 14.918-30.938 10.313-41 38.694-42.154 42.256C88.07 70.67 71.507 84.223 62.53 104.526c0 0 1.941 8.853-2.441 13.718-5.352 4.38-17.027 13.869-22.869 18.249-6.57 4.136-35.768 20.683-33.336 31.388l.057.172c.005.001 7.811 1.309 10.755.02.443-.208 1.348-.375 4.865 2.096 3.07 1.947 9.77 2.15 12.057-.842 1.535-1.768 3.814-2.678 4.26-.804 0 1.198-.148 7.187-15.492 11.604-.438.146-2.219 5.355-2.731 7.159.458 7.747 3.855 13.771 3.855 13.771 4.685 4.996 32.104 33.105 65.467 19.912.83-.334 6.982 2.658 1.829 5.652-3.261.932-32.536 11.966-62.31-18.813 1.247 5.24-2.26 12.588-2.26 12.588l-.946 1.967c-1.121 10.307-1.783 40.96 31.392 32.303 7.549-1.969 10.096-5.289 15.133-7.879 14.441-7.43 24.333-9.731 40.532-11.409 11.315-3.02 26.149-10.455 31.479-28.786-.066.053-2.631 26.091-35.743 32.152-5.135 4.688-13.468 14.878-18.292 34.385-2.099 8.484-3.727 18.158-4.451 29.012-1.581 23.604 1.12 52.779 12.611 87.402 1.532-3.572.09-21.701 12.133-38.393.99-1.373 1.938-2.787 2.864-4.213 2.425 6.281 5.563 12.91 9.525 19.904 11.004 28.363 9.05 29.271 7.863 52.432.981-6.818 9.493-47.686 20.379-74.988-.076.453-.148.908-.229 1.369-7.387 43.582 34.579 91.77 34.579 91.77-2.068-54.736 13.635-89.586 33.049-112.357.9 10.234 4.691 22.582 13.082 37.383 7.174 18.494 5.902 19.102 5.129 34.189.625-4.326 5.84-29.404 12.607-47.148.174 17.285 9.873 40.541 11.158 40.449-3.551-11.832 4.281-39.27 5.313-41.291 5.709-13.727 7.744-26.926 7.701-38.852.906 6.916 1.514 12.367 1.736 12.791-2.082 10.973 6.799 41.219 5.789 35.193-1.01-6.02 3.291-23.203 3.76-23.34 4.324-16.004 5.734-30.848 5.781-43.256 4.818 8.088 9.637 22.766 10.242 25.078-1.201-7.316-1.854-7.543.639-16.957 1.885-4.408 3.072-8.34 3.723-11.842.145 1.447.051 2.725-.326 3.732-5.127 14.102 9.584 30.949 9.584 30.949-7.141-9.322-.537-14.217.4-36.793.018-.455.023-.904.031-1.355 2.609 6.83 4.506 12.756 4.916 14.338-1.576-9.637-2.434-9.934.844-22.326 3.191-7.447 4.865-13.865 5.465-19.379 2.098 11.877 14.363 27.875 15.27 27.561-4.482-7.236-4.182-26.9-3.857-28.426.166-1.27.295-2.523.391-3.764 6.682 4.734 13.553 7.951 13.949 7.553-5.652-3.584-12.045-15.904-14.17-20.627-1.383-12.207-5.859-22.279-10.357-29.659 4.459 3.886 8.291 7.463 8.643 7.6 3.63 6.236 20.77 17.236 17.723 14.724zM117.178 124.671c.026.09-1 .222-2.513.384-.608 1.251-3.907 2.663-8.032 3.341-3.31.549-6.264.477-7.808-.085-4.677 2.042-11.831 5.39-19.349 8.603 0 0 11.542-7.784 15.081-14.167 1.217-1.642 2.752-2.965 4.514-3.764-4.792-1.196-9.866-2.175-14.383-2.445.398-.069 15.891-1.155 26.043 2.551.365.177 4.501 1.141 6.949 5.774l-.502-.192z" style="fill:#f76205;fill-opacity:1"/></g></g><path fill="url(#c)" d="M20.02 11.777v5.156h-6.7V40h-5.8V16.933H.782v-5.156H20.02zm11.884 28.614c-6.055 0-10.781-2.91-11.641-8.203l6.055-1.387c.39 3.164 2.714 4.805 5.82 4.805 2.383 0 4.277-1.055 4.258-3.438-.02-2.656-3.145-3.496-6.582-4.55-4.14-1.29-8.574-2.813-8.574-8.009 0-5.253 4.296-8.222 9.96-8.222 4.961 0 9.961 2.011 11.094 7.422l-5.664 1.406c-.527-2.813-2.422-4.043-5.078-4.043-2.363 0-4.375.976-4.375 3.3 0 2.169 2.774 2.891 5.977 3.848 4.258 1.29 9.297 2.93 9.297 8.555 0 5.996-5.02 8.516-10.547 8.516zm26.24 0c-8.144 0-14.14-5.625-14.14-14.434 0-8.926 6.132-14.57 14.433-14.57 5.45 0 9.961 2.402 12.422 6.64l-5.137 2.735c-1.484-2.891-4.14-4.278-7.285-4.278-4.883 0-8.554 3.36-8.554 9.336 0 5.762 3.437 9.473 8.77 9.473 3.612 0 6.933-1.797 7.733-5.918h-7.714v-4.707h13.262V40h-4.61v-3.906c-1.816 2.675-4.863 4.297-9.18 4.297zm20.713 0c-1.738 0-3.203-1.446-3.203-3.203s1.465-3.243 3.203-3.243c1.778 0 3.243 1.485 3.243 3.243s-1.465 3.203-3.243 3.203zm20.4 0c-8.144 0-14.14-5.625-14.14-14.434 0-8.926 6.132-14.57 14.433-14.57 5.45 0 9.961 2.402 12.422 6.64l-5.136 2.735c-1.485-2.891-4.14-4.278-7.285-4.278-4.883 0-8.555 3.36-8.555 9.336 0 5.762 3.437 9.473 8.77 9.473 3.613 0 6.933-1.797 7.734-5.918h-7.715v-4.707h13.262V40h-4.61v-3.906c-1.816 2.675-4.863 4.297-9.18 4.297zm17.94-.391V11.777h5.86V40h-5.86zm27.862-23.066h-10.742v6.406h9.277v5.098h-9.277v11.563h-5.899V11.778h16.641v5.156zm19.443-5.157v5.156h-6.699V40h-5.8V16.933h-6.739v-5.156h19.238z" style="fill:#f76205;fill-opacity:1" transform="translate(119.045 36.09) scale(1.22159)"/><path fill="url(#d)" d="M10.01 5.889v2.578H6.66V20h-2.9V8.467H.39V5.89h9.62zm3.281 2.568c-.889 0-1.63-.723-1.63-1.621 0-.889.741-1.611 1.63-1.611.87 0 1.611.722 1.611 1.61 0 .9-.742 1.622-1.611 1.622zM11.855 20V9.961h2.832V20h-2.832zM29.493 9.766c2.148 0 3.535 1.094 3.535 3.154V20h-2.813v-6.279c0-1.182-.742-1.7-1.582-1.7-1.006 0-1.894.577-1.894 2.315v5.665h-2.842v-6.25c0-1.202-.723-1.729-1.611-1.729-.977 0-1.885.576-1.885 2.46v5.519h-2.803V9.96h2.803v1.182c.664-.889 1.68-1.377 2.91-1.377 1.455 0 2.549.527 3.076 1.504.703-1.006 1.778-1.504 3.106-1.504zm15.712 5.068-.03.674h-7.441c.117 1.67 1.23 2.47 2.568 2.47 1.006 0 1.787-.468 2.168-1.357l2.578.381c-.664 2.031-2.47 3.193-4.726 3.193-3.242 0-5.361-1.914-5.361-5.214s2.177-5.235 5.273-5.235c2.842 0 4.96 1.572 4.97 5.088zm-4.951-3.096c-1.28 0-2.168.596-2.441 1.934h4.609c-.147-1.28-1.016-1.934-2.168-1.934zm17.344 8.457c-3.028 0-5.39-1.455-5.82-4.101l3.027-.694c.195 1.582 1.357 2.403 2.91 2.403 1.191 0 2.139-.528 2.129-1.72-.01-1.327-1.573-1.747-3.291-2.275-2.07-.644-4.287-1.406-4.287-4.003 0-2.627 2.148-4.112 4.98-4.112 2.48 0 4.98 1.006 5.547 3.711l-2.832.703c-.264-1.406-1.21-2.021-2.539-2.021-1.182 0-2.188.488-2.188 1.65 0 1.084 1.387 1.445 2.989 1.924 2.129.645 4.648 1.465 4.648 4.277 0 2.998-2.51 4.258-5.273 4.258zM71.856 9.961h2.812V20h-2.666l-.068-1.21c-.703.888-1.817 1.405-3.194 1.405-2.412 0-3.74-1.26-3.74-3.476V9.96h2.822v6.152c0 1.328.83 1.817 1.807 1.817 1.162 0 2.217-.586 2.227-2.432V9.961zm10.263 10.225c-3.154 0-5.38-2.1-5.38-5.215 0-3.125 2.226-5.205 5.38-5.205 2.54 0 4.444 1.318 4.932 3.691l-2.598.283c-.312-1.201-1.182-1.758-2.363-1.758-1.514 0-2.54 1.192-2.54 2.989 0 1.787 1.026 2.988 2.54 2.988 1.181 0 2.05-.566 2.363-1.758l2.598.283c-.489 2.373-2.442 3.702-4.932 3.702zm11.475 0c-3.155 0-5.381-2.1-5.381-5.215 0-3.125 2.226-5.205 5.38-5.205 2.54 0 4.444 1.318 4.932 3.691l-2.597.283c-.313-1.201-1.182-1.758-2.364-1.758-1.513 0-2.539 1.192-2.539 2.989 0 1.787 1.026 2.988 2.54 2.988 1.181 0 2.05-.566 2.363-1.758l2.597.283c-.488 2.373-2.441 3.702-4.931 3.702zm16.376-5.352-.029.674H102.5c.117 1.67 1.23 2.47 2.568 2.47 1.006 0 1.787-.468 2.168-1.357l2.578.381c-.664 2.031-2.47 3.193-4.727 3.193-3.242 0-5.36-1.914-5.36-5.214s2.177-5.235 5.273-5.235c2.841 0 4.96 1.572 4.97 5.088zm-4.95-3.096c-1.28 0-2.168.596-2.442 1.934h4.61c-.147-1.28-1.016-1.934-2.168-1.934zm10.624 8.457c-2.255 0-4.003-.888-4.365-2.793l2.354-.664c.303 1.074 1.064 1.494 2.011 1.494.694 0 1.446-.214 1.426-1.006-.01-1.044-1.592-1.132-3.183-1.699-1.202-.42-2.354-1.064-2.354-2.754 0-2.06 1.71-3.007 3.936-3.007 1.953 0 3.584.742 3.974 2.656l-2.177.488c-.303-.937-.967-1.27-1.788-1.27-.742 0-1.377.264-1.377.89 0 .79 1.163.947 2.422 1.288 1.553.42 3.252 1.094 3.252 3.243 0 2.304-1.963 3.134-4.13 3.134zm9.688 0c-2.256 0-4.004-.888-4.365-2.793l2.353-.664c.303 1.074 1.065 1.494 2.012 1.494.693 0 1.445-.214 1.426-1.006-.01-1.044-1.592-1.132-3.184-1.699-1.201-.42-2.353-1.064-2.353-2.754 0-2.06 1.709-3.007 3.935-3.007 1.953 0 3.584.742 3.975 2.656l-2.178.488c-.303-.937-.967-1.27-1.787-1.27-.742 0-1.377.264-1.377.89 0 .79 1.162.947 2.422 1.288 1.553.42 3.252 1.094 3.252 3.243 0 2.304-1.963 3.134-4.131 3.134zm17.822 0c-4.072 0-7.07-2.812-7.07-7.216 0-4.463 3.066-7.286 7.217-7.286 2.724 0 4.98 1.202 6.21 3.32l-2.568 1.368c-.742-1.445-2.07-2.139-3.642-2.139-2.442 0-4.278 1.68-4.278 4.668 0 2.881 1.72 4.736 4.385 4.736 1.807 0 3.467-.898 3.867-2.959h-3.857v-2.353h6.63V20h-2.304v-1.953c-.908 1.338-2.431 2.148-4.59 2.148zm9.56-.195V5h2.843v15h-2.842zm10.43.195c-3.193 0-5.497-1.943-5.497-5.224 0-3.262 2.285-5.205 5.498-5.205 3.232 0 5.507 1.943 5.507 5.205 0 3.281-2.285 5.224-5.507 5.224zm-.029-2.236c1.631 0 2.744-1.191 2.744-2.988s-1.113-2.989-2.744-2.989c-1.572 0-2.676 1.192-2.676 2.989s1.104 2.988 2.676 2.988zm13.526-8.193c2.636 0 4.824 1.953 4.824 5.234s-2.188 5.235-4.824 5.235c-1.387 0-2.598-.557-3.164-1.543L173.408 20h-2.666V5h2.813v6.182c.586-.908 1.757-1.416 3.086-1.416zm-.655 8.134c1.494 0 2.666-1.103 2.666-2.9 0-1.807-1.172-2.91-2.666-2.91-1.484 0-2.656 1.152-2.656 2.91s1.162 2.9 2.656 2.9zm15.83-.625c0 1.23.118 2.012.245 2.452V20h-2.627l-.225-1.094c-.752.908-2.05 1.29-3.223 1.29-1.582 0-3.125-.704-3.125-2.794 0-2.08 1.553-2.783 3.653-3.242l1.65-.37c.713-.167.967-.411.967-.821 0-.987-.899-1.26-1.69-1.26-1.015 0-1.787.4-1.963 1.533l-2.49-.45c.42-2.08 1.944-3.026 4.61-3.026 2.011 0 4.218.595 4.218 3.623v3.886zm-4.95 1.016c1.337 0 2.411-.889 2.411-2.88l-2.382.673c-.782.185-1.348.459-1.348 1.133 0 .722.596 1.074 1.318 1.074zM194.55 20V5h2.842v15h-2.842z" style="fill:#f76205;fill-opacity:1" transform="matrix(.81218 0 0 .81218 139.683 90.94)"/></g></svg>