<?xml version="1.0" encoding="UTF-8" standalone="no"?>
<svg
   version="1.1"
   width="3187.5"
   height="1640.625"
   viewBox="0 0 3187.5 1640.625"
   id="svg63"

   xmlns="http://www.w3.org/2000/svg"
   xmlns:svg="http://www.w3.org/2000/svg">
  <rect
     fill="#000000"
     width="3187.5"
     height="1640.625"
     id="rect2"
     style="fill:#ffffff" />
  <g
     transform="scale(9.375) translate(10, 10)"
     id="g61"
     style="fill:#f76205;fill-opacity:1">
    <defs
       id="SvgjsDefs9047">
      <linearGradient
         id="SvgjsLinearGradient9056">
        <stop
           id="SvgjsStop9057"
           stop-color="#8f5e25"
           offset="0" />
        <stop
           id="SvgjsStop9058"
           stop-color="#fbf4a1"
           offset="0.5" />
        <stop
           id="SvgjsStop9059"
           stop-color="#8f5e25"
           offset="1" />
      </linearGradient>
      <linearGradient
         id="SvgjsLinearGradient9060">
        <stop
           id="SvgjsStop9061"
           stop-color="#8f5e25"
           offset="0" />
        <stop
           id="SvgjsStop9062"
           stop-color="#fbf4a1"
           offset="0.5" />
        <stop
           id="SvgjsStop9063"
           stop-color="#8f5e25"
           offset="1" />
      </linearGradient>
      <linearGradient
         id="SvgjsLinearGradient9064">
        <stop
           id="SvgjsStop9065"
           stop-color="#8f5e25"
           offset="0" />
        <stop
           id="SvgjsStop9066"
           stop-color="#fbf4a1"
           offset="0.5" />
        <stop
           id="SvgjsStop9067"
           stop-color="#8f5e25"
           offset="1" />
      </linearGradient>
      <linearGradient
         id="SvgjsLinearGradient9068">
        <stop
           id="SvgjsStop9069"
           stop-color="#8f5e25"
           offset="0" />
        <stop
           id="SvgjsStop9070"
           stop-color="#fbf4a1"
           offset="0.5" />
        <stop
           id="SvgjsStop9071"
           stop-color="#8f5e25"
           offset="1" />
      </linearGradient>
    </defs>
    <g
       id="SvgjsG9048"
       transform="matrix(1,0,0,1,0,0)"
       fill="url(#SvgjsLinearGradient9056)"
       style="fill:#f76205;fill-opacity:1">
      <rect
         y="0"
         height="1"
         width="1"
         opacity="0"
         id="rect21"
         style="fill:#f76205;fill-opacity:1" />
      <rect
         y="150"
         width="320"
         height="5"
         id="rect23"
         style="fill:#f76205;fill-opacity:1" />
    </g>
    <g
       id="SvgjsG9049"
       transform="matrix(0.27875814132768945,0,0,0.27875814132768945,-0.0000178718105414865,16.147098535065055)"
       fill="url(#SvgjsLinearGradient9060)"
       style="fill:#f76205;fill-opacity:1">
      <g
         id="g52"
         style="fill:#f76205;fill-opacity:1">
        <path
           d="M58.304,11.593c0.107-0.075,0.208-0.146,0.319-0.223C58.647,11.315,58.533,11.398,58.304,11.593z"
           id="path26"
           style="fill:#f76205;fill-opacity:1" />
        <path
           d="M212.362,131.296c0.125,0.035,0.244,0.068,0.371,0.104C212.792,131.387,212.657,131.35,212.362,131.296z"
           id="path28"
           style="fill:#f76205;fill-opacity:1" />
        <path
           d="M81.208,20.221c0.08-0.056,0.156-0.11,0.236-0.167C81.466,20.013,81.376,20.078,81.208,20.221z"
           id="path30"
           style="fill:#f76205;fill-opacity:1" />
        <path
           d="M167.765,67.683c0.138,0.007,0.271,0.014,0.413,0.022C168.236,67.677,168.084,67.671,167.765,67.683z"
           id="path32"
           style="fill:#f76205;fill-opacity:1" />
        <path
           d="M181.237,90.041c0.104,0.007,0.205,0.012,0.314,0.018C181.596,90.037,181.481,90.032,181.237,90.041z"
           id="path34"
           style="fill:#f76205;fill-opacity:1" />
        <path
           d="M217.056,196.214c0.07,0.065,0.141,0.125,0.213,0.192C217.312,196.418,217.229,196.345,217.056,196.214z"
           id="path36"
           style="fill:#f76205;fill-opacity:1" />
        <path
           d="M189.138,290.9c0.023,0.135,0.045,0.264,0.07,0.408C189.245,291.359,189.222,291.209,189.138,290.9z"
           id="path38"
           style="fill:#f76205;fill-opacity:1" />
        <path
           d="M170.171,308.828c0.016,0.105,0.031,0.201,0.049,0.309C170.247,309.176,170.23,309.064,170.171,308.828z"
           id="path40"
           style="fill:#f76205;fill-opacity:1" />
        <path
           d="M106.052,389.842c0.01-0.219,0.021-0.422,0.031-0.639C106.013,389.695,105.999,389.932,106.052,389.842z"
           id="path42"
           style="fill:#f76205;fill-opacity:1" />
        <path
           d="M0.049,412.807c0.014-0.326,0.03-0.648,0.046-0.969C-0.011,412.584-0.031,412.939,0.049,412.807z"
           id="path44"
           style="fill:#f76205;fill-opacity:1" />
        <g
           id="g50"
           style="fill:#f76205;fill-opacity:1">
          <path
             d="M20.255,200.8c-2.908-4.926-3.438-12.383-3.45-13.423c-1.656-0.655-3.898-3.947-4.285-4.441    c0.062,0.747,0.418,5.701,1.889,9.376c0.155,3.649-0.943,18.687,7.403,25.619C26.243,212.1,21.148,202.396,20.255,200.8z"
             id="path46"
             style="fill:#f76205;fill-opacity:1" />
          <path
             d="M351.28,231.592c-3.039-2.512-8.215-12.719-8.045-12.981c-5.549-11.466-12.416-20.384-18.416-26.812    c8.141,3.497,18.848,10.606,20.48,11.851c-5.139-4.695-5.75-4.479-9.383-12.856c-1.172-4.342-2.578-7.926-4.139-10.883    c0.949,0.982,1.623,1.977,1.928,2.94c4.418,13.357,25.029,17.211,25.029,17.211c-10.666-2.71-8.652-10.148-21.074-27.312    c-8.793-12.147-21.52-19.22-28.494-22.259c-0.008-0.026-0.016-0.05-0.025-0.076c10.223,4.754,31.145,1.766,31.311,0.83    c-7.971,0.355-23.922-8.886-25.025-9.85c-2.25-1.681-4.525-3.154-6.801-4.451c11.627-0.857,29.186,1.27,31.98,1.787    c-8.807-2.487-9.404-1.877-18.623-9.583c-8.561-9.589-16.318-14.332-23.014-16.253c3.594,0.141,6.328,0.292,6.572,0.211    c5.971,2.221,23.826,0.117,20.348,0.109c-3.484-0.006-12.736-4.069-12.771-4.344c-9.34-4.311-18.238-6.545-25.578-7.676    c-0.078-0.113-0.154-0.224-0.23-0.339c8.844-2.158,20.15-3.3,22.172-3.382c-7.402-0.386-7.768,0.202-16.432-4.24    c-3.908-2.785-7.494-4.782-10.779-6.166c1.449,0.168,2.678,0.533,3.58,1.118c12.686,8.017,32.281-2.768,32.281-2.768    c-10.625,4.992-14.004-2.502-35.863-8.233c-0.439-0.115-0.877-0.217-1.314-0.321c7.23-1.094,13.426-1.683,15.055-1.749    c-9.748-0.511-10.225,0.266-21.629-5.58c-6.6-4.707-12.51-7.713-17.773-9.475c12.053,0.486,30.301-8.086,30.186-9.038    c-8.029,2.833-27.172-1.653-28.596-2.294c-1.205-0.436-2.398-0.828-3.592-1.186c6.047-5.521,10.658-11.543,10.354-12.019    c-4.705,4.761-18.109,8.377-23.18,9.447c-12.217-1.252-23.012,0.974-31.18,3.796c4.746-3.529,9.059-6.51,9.268-6.824    c6.865-2.215,21.266-16.616,18.166-14.178c-3.102,2.437-14.178,5.318-14.4,5.095c-12.387,2.977-22.561,7.783-30.123,12.277    c5.15-7.206,14.379-16.149,15.943-17.484c-5.678,4.018-5.602,4.66-14.561,6.425c-4.492,0.218-8.293,0.831-11.514,1.723    c1.162-0.716,2.277-1.164,3.285-1.256c13.99-1.467,22.15-20.784,22.15-20.784c-4.924,9.845-11.762,6.291-31.176,14.767    c-0.389,0.17-0.768,0.351-1.152,0.528c4.688-5.007,8.902-9.035,10.063-10.03c-7.469,5.286-7.369,6.132-19.159,8.454    c-7.59,0.369-13.686,1.589-18.584,3.347c9.153-6.641,17.605-23.545,16.969-24.179c-4.264,6.747-20.959,14.563-22.379,14.918    c-30.938,10.313-41,38.694-42.154,42.256C88.07,70.67,71.507,84.223,62.53,104.526c0,0,1.941,8.853-2.441,13.718    c-5.352,4.38-17.027,13.869-22.869,18.249c-6.57,4.136-35.768,20.683-33.336,31.388c0.021,0.063,0.038,0.113,0.057,0.172    c0.005,0.001,7.811,1.309,10.755,0.02c0.443-0.208,1.348-0.375,4.865,2.096c3.07,1.947,9.77,2.15,12.057-0.842    c1.535-1.768,3.814-2.678,4.26-0.804c0,1.198-0.148,7.187-15.492,11.604c-0.438,0.146-2.219,5.355-2.731,7.159    c0.458,7.747,3.855,13.771,3.855,13.771c4.685,4.996,32.104,33.105,65.467,19.912c0.83-0.334,6.982,2.658,1.829,5.652    c-3.261,0.932-32.536,11.966-62.31-18.813c1.247,5.24-2.26,12.588-2.26,12.588l-0.946,1.967    c-1.121,10.307-1.783,40.96,31.392,32.303c7.549-1.969,10.096-5.289,15.133-7.879c14.441-7.43,24.333-9.731,40.532-11.409    c11.315-3.02,26.149-10.455,31.479-28.786c-0.066,0.053-2.631,26.091-35.743,32.152c-5.135,4.688-13.468,14.878-18.292,34.385    c-2.099,8.484-3.727,18.158-4.451,29.012c-1.581,23.604,1.12,52.779,12.611,87.402c1.532-3.572,0.09-21.701,12.133-38.393    c0.99-1.373,1.938-2.787,2.864-4.213c2.425,6.281,5.563,12.91,9.525,19.904c11.004,28.363,9.05,29.271,7.863,52.432    c0.981-6.818,9.493-47.686,20.379-74.988c-0.076,0.453-0.148,0.908-0.229,1.369c-7.387,43.582,34.579,91.77,34.579,91.77    c-2.068-54.736,13.635-89.586,33.049-112.357c0.9,10.234,4.691,22.582,13.082,37.383c7.174,18.494,5.902,19.102,5.129,34.189    c0.625-4.326,5.84-29.404,12.607-47.148c0.174,17.285,9.873,40.541,11.158,40.449c-3.551-11.832,4.281-39.27,5.313-41.291    c5.709-13.727,7.744-26.926,7.701-38.852c0.906,6.916,1.514,12.367,1.736,12.791c-2.082,10.973,6.799,41.219,5.789,35.193    c-1.01-6.02,3.291-23.203,3.76-23.34c4.324-16.004,5.734-30.848,5.781-43.256c4.818,8.088,9.637,22.766,10.242,25.078    c-1.201-7.316-1.854-7.543,0.639-16.957c1.885-4.408,3.072-8.34,3.723-11.842c0.145,1.447,0.051,2.725-0.326,3.732    c-5.127,14.102,9.584,30.949,9.584,30.949c-7.141-9.322-0.537-14.217,0.4-36.793c0.018-0.455,0.023-0.904,0.031-1.355    c2.609,6.83,4.506,12.756,4.916,14.338c-1.576-9.637-2.434-9.934,0.844-22.326c3.191-7.447,4.865-13.865,5.465-19.379    c2.098,11.877,14.363,27.875,15.27,27.561c-4.482-7.236-4.182-26.9-3.857-28.426c0.166-1.27,0.295-2.523,0.391-3.764    c6.682,4.734,13.553,7.951,13.949,7.553c-5.652-3.584-12.045-15.904-14.17-20.627c-1.383-12.207-5.859-22.279-10.357-29.659    c4.459,3.886,8.291,7.463,8.643,7.6C337.187,223.104,354.327,234.104,351.28,231.592z M117.178,124.671    c0.026,0.09-1,0.222-2.513,0.384c-0.608,1.251-3.907,2.663-8.032,3.341c-3.31,0.549-6.264,0.477-7.808-0.085    c-4.677,2.042-11.831,5.39-19.349,8.603c0,0,11.542-7.784,15.081-14.167c1.217-1.642,2.752-2.965,4.514-3.764    c-4.792-1.196-9.866-2.175-14.383-2.445c0.398-0.069,15.891-1.155,26.043,2.551c0.365,0.177,4.501,1.141,6.949,5.774    C117.68,124.864,117.504,124.795,117.178,124.671z"
             id="path48"
             style="fill:#f76205;fill-opacity:1" />
        </g>
      </g>
    </g>
    <g
       id="SvgjsG9050"
       transform="matrix(1.221592489785967,0,0,1.221592489785967,119.04507982170074,36.09017940182491)"
       fill="url(#SvgjsLinearGradient9064)"
       style="fill:#f76205;fill-opacity:1">
      <path
         d="M20.02 11.777000000000001 l0 5.1563 l-6.6992 0 l0 23.066 l-5.8008 0 l0 -23.066 l-6.7383 0 l0 -5.1563 l19.238 0 z M31.903953125 40.39063 c-6.0547 0 -10.781 -2.9102 -11.641 -8.2031 l6.0547 -1.3867 c0.39063 3.1641 2.7148 4.8047 5.8203 4.8047 c2.3828 0 4.2773 -1.0547 4.2578 -3.4375 c-0.019531 -2.6563 -3.1445 -3.4961 -6.582 -4.5508 c-4.1406 -1.2891 -8.5742 -2.8125 -8.5742 -8.0078 c0 -5.2539 4.2969 -8.2227 9.9609 -8.2227 c4.9609 0 9.9609 2.0117 11.094 7.4219 l-5.6641 1.4063 c-0.52734 -2.8125 -2.4219 -4.043 -5.0781 -4.043 c-2.3633 0 -4.375 0.97656 -4.375 3.3008 c0 2.168 2.7734 2.8906 5.9766 3.8477 c4.2578 1.2891 9.2969 2.9297 9.2969 8.5547 c0 5.9961 -5.0195 8.5156 -10.547 8.5156 z M58.14415625 40.39063 c-8.1445 0 -14.141 -5.625 -14.141 -14.434 c0 -8.9258 6.1328 -14.57 14.434 -14.57 c5.4492 0 9.9609 2.4023 12.422 6.6406 l-5.1367 2.7344 c-1.4844 -2.8906 -4.1406 -4.2773 -7.2852 -4.2773 c-4.8828 0 -8.5547 3.3594 -8.5547 9.3359 c0 5.7617 3.4375 9.4727 8.7695 9.4727 c3.6133 0 6.9336 -1.7969 7.7344 -5.918 l-7.7148 0 l0 -4.707 l13.262 0 l0 15.332 l-4.6094 0 l0 -3.9063 c-1.8164 2.6758 -4.8633 4.2969 -9.1797 4.2969 z M78.857440625 40.39063 c-1.7383 0 -3.2031 -1.4453 -3.2031 -3.2031 s1.4648 -3.2422 3.2031 -3.2422 c1.7773 0 3.2422 1.4844 3.2422 3.2422 s-1.4648 3.2031 -3.2422 3.2031 z M99.2574375 40.39063 c-8.1445 0 -14.141 -5.625 -14.141 -14.434 c0 -8.9258 6.1328 -14.57 14.434 -14.57 c5.4492 0 9.9609 2.4023 12.422 6.6406 l-5.1367 2.7344 c-1.4844 -2.8906 -4.1406 -4.2773 -7.2852 -4.2773 c-4.8828 0 -8.5547 3.3594 -8.5547 9.3359 c0 5.7617 3.4375 9.4727 8.7695 9.4727 c3.6133 0 6.9336 -1.7969 7.7344 -5.918 l-7.7148 0 l0 -4.707 l13.262 0 l0 15.332 l-4.6094 0 l0 -3.9063 c-1.8164 2.6758 -4.8633 4.2969 -9.1797 4.2969 z M117.197221875 40 l0 -28.223 l5.8594 0 l0 28.223 l-5.8594 0 z M145.058625 16.934 l-10.742 0 l0 6.4063 l9.2773 0 l0 5.0977 l-9.2773 0 l0 11.563 l-5.8984 0 l0 -28.223 l16.641 0 l0 5.1563 z M164.502421875 11.777000000000001 l0 5.1563 l-6.6992 0 l0 23.066 l-5.8008 0 l0 -23.066 l-6.7383 0 l0 -5.1563 l19.238 0 z"
         id="path55"
         style="fill:#f76205;fill-opacity:1" />
    </g>
    <g
       id="SvgjsG9051"
       transform="matrix(0.8121757583611056,0,0,0.8121757583611056,139.6825203863802,90.93912120819448)"
       fill="url(#SvgjsLinearGradient9068)"
       style="fill:#f76205;fill-opacity:1">
      <path
         d="M10.01 5.888999999999999 l0 2.5781 l-3.3496 0 l0 11.533 l-2.9004 0 l0 -11.533 l-3.3691 0 l0 -2.5781 l9.6191 0 z M13.290990625 8.457 c-0.88867 0 -1.6309 -0.72266 -1.6309 -1.6211 c0 -0.88867 0.74219 -1.6113 1.6309 -1.6113 c0.86914 0 1.6113 0.72266 1.6113 1.6113 c0 0.89844 -0.74219 1.6211 -1.6113 1.6211 z M11.855490625 20 l0 -10.039 l2.832 0 l0 10.039 l-2.832 0 z M29.492578125 9.766 c2.1484 0 3.5352 1.0938 3.5352 3.1543 l0 7.0801 l-2.8125 0 l0 -6.2793 c0 -1.1816 -0.74219 -1.6992 -1.582 -1.6992 c-1.0059 0 -1.8945 0.57617 -1.8945 2.3145 l0 5.6641 l-2.8418 0 l0 -6.25 c0 -1.2012 -0.72266 -1.7285 -1.6113 -1.7285 c-0.97656 0 -1.8848 0.57617 -1.8848 2.4609 l0 5.5176 l-2.8027 0 l0 -10.039 l2.8027 0 l0 1.1816 c0.66406 -0.88867 1.6797 -1.377 2.9102 -1.377 c1.4551 0 2.5488 0.52734 3.0762 1.5039 c0.70313 -1.0059 1.7773 -1.5039 3.1055 -1.5039 z M45.204640624999996 14.834 l-0.029297 0.67383 l-7.4414 0 c0.11719 1.6699 1.2305 2.4707 2.5684 2.4707 c1.0059 0 1.7871 -0.46875 2.168 -1.3574 l2.5781 0.38086 c-0.66406 2.0313 -2.4707 3.1934 -4.7266 3.1934 c-3.2422 0 -5.3613 -1.9141 -5.3613 -5.2148 s2.1777 -5.2344 5.2734 -5.2344 c2.8418 0 4.9609 1.5723 4.9707 5.0879 z M40.253940625 11.7383 c-1.2793 0 -2.168 0.5957 -2.4414 1.9336 l4.6094 0 c-0.14648 -1.2793 -1.0156 -1.9336 -2.168 -1.9336 z M57.597684375 20.19531 c-3.0273 0 -5.3906 -1.4551 -5.8203 -4.1016 l3.0273 -0.69336 c0.19531 1.582 1.3574 2.4023 2.9102 2.4023 c1.1914 0 2.1387 -0.52734 2.1289 -1.7188 c-0.0097656 -1.3281 -1.5723 -1.748 -3.291 -2.2754 c-2.0703 -0.64453 -4.2871 -1.4063 -4.2871 -4.0039 c0 -2.627 2.1484 -4.1113 4.9805 -4.1113 c2.4805 0 4.9805 1.0059 5.5469 3.7109 l-2.832 0.70313 c-0.26367 -1.4063 -1.2109 -2.0215 -2.5391 -2.0215 c-1.1816 0 -2.1875 0.48828 -2.1875 1.6504 c0 1.084 1.3867 1.4453 2.9883 1.9238 c2.1289 0.64453 4.6484 1.4648 4.6484 4.2773 c0 2.998 -2.5098 4.2578 -5.2734 4.2578 z M71.8555 9.961 l2.8125 0 l0 10.039 l-2.666 0 l-0.068359 -1.2109 c-0.70313 0.88867 -1.8164 1.4063 -3.1934 1.4063 c-2.4121 0 -3.7402 -1.2598 -3.7402 -3.4766 l0 -6.7578 l2.8223 0 l0 6.1523 c0 1.3281 0.83008 1.8164 1.8066 1.8164 c1.1621 0 2.2168 -0.58594 2.2266 -2.4316 l0 -5.5371 z M82.119146875 20.18555 c-3.1543 0 -5.3809 -2.0996 -5.3809 -5.2148 c0 -3.125 2.2266 -5.2051 5.3809 -5.2051 c2.5391 0 4.4434 1.3184 4.9316 3.6914 l-2.5977 0.2832 c-0.3125 -1.2012 -1.1816 -1.7578 -2.3633 -1.7578 c-1.5137 0 -2.5391 1.1914 -2.5391 2.9883 c0 1.7871 1.0254 2.9883 2.5391 2.9883 c1.1816 0 2.0508 -0.56641 2.3633 -1.7578 l2.5977 0.2832 c-0.48828 2.373 -2.4414 3.7012 -4.9316 3.7012 z M93.59375625 20.18555 c-3.1543 0 -5.3809 -2.0996 -5.3809 -5.2148 c0 -3.125 2.2266 -5.2051 5.3809 -5.2051 c2.5391 0 4.4434 1.3184 4.9316 3.6914 l-2.5977 0.2832 c-0.3125 -1.2012 -1.1816 -1.7578 -2.3633 -1.7578 c-1.5137 0 -2.5391 1.1914 -2.5391 2.9883 c0 1.7871 1.0254 2.9883 2.5391 2.9883 c1.1816 0 2.0508 -0.56641 2.3633 -1.7578 l2.5977 0.2832 c-0.48828 2.373 -2.4414 3.7012 -4.9316 3.7012 z M109.970265625 14.834 l-0.029297 0.67383 l-7.4414 0 c0.11719 1.6699 1.2305 2.4707 2.5684 2.4707 c1.0059 0 1.7871 -0.46875 2.168 -1.3574 l2.5781 0.38086 c-0.66406 2.0313 -2.4707 3.1934 -4.7266 3.1934 c-3.2422 0 -5.3613 -1.9141 -5.3613 -5.2148 s2.1777 -5.2344 5.2734 -5.2344 c2.8418 0 4.9609 1.5723 4.9707 5.0879 z M105.019565625 11.7383 c-1.2793 0 -2.168 0.5957 -2.4414 1.9336 l4.6094 0 c-0.14648 -1.2793 -1.0156 -1.9336 -2.168 -1.9336 z M115.644496875 20.19531 c-2.2559 0 -4.0039 -0.88867 -4.3652 -2.793 l2.3535 -0.66406 c0.30273 1.0742 1.0645 1.4941 2.0117 1.4941 c0.69336 0 1.4453 -0.21484 1.4258 -1.0059 c-0.0097656 -1.0449 -1.5918 -1.1328 -3.1836 -1.6992 c-1.2012 -0.41992 -2.3535 -1.0645 -2.3535 -2.7539 c0 -2.0605 1.709 -3.0078 3.9355 -3.0078 c1.9531 0 3.584 0.74219 3.9746 2.6563 l-2.1777 0.48828 c-0.30273 -0.9375 -0.9668 -1.2695 -1.7871 -1.2695 c-0.74219 0 -1.377 0.26367 -1.377 0.88867 c0 0.79102 1.1621 0.94727 2.4219 1.2891 c1.5527 0.41992 3.252 1.0938 3.252 3.2422 c0 2.3047 -1.9629 3.1348 -4.1309 3.1348 z M125.331996875 20.19531 c-2.2559 0 -4.0039 -0.88867 -4.3652 -2.793 l2.3535 -0.66406 c0.30273 1.0742 1.0645 1.4941 2.0117 1.4941 c0.69336 0 1.4453 -0.21484 1.4258 -1.0059 c-0.0097656 -1.0449 -1.5918 -1.1328 -3.1836 -1.6992 c-1.2012 -0.41992 -2.3535 -1.0645 -2.3535 -2.7539 c0 -2.0605 1.709 -3.0078 3.9355 -3.0078 c1.9531 0 3.584 0.74219 3.9746 2.6563 l-2.1777 0.48828 c-0.30273 -0.9375 -0.9668 -1.2695 -1.7871 -1.2695 c-0.74219 0 -1.377 0.26367 -1.377 0.88867 c0 0.79102 1.1621 0.94727 2.4219 1.2891 c1.5527 0.41992 3.252 1.0938 3.252 3.2422 c0 2.3047 -1.9629 3.1348 -4.1309 3.1348 z M143.154309375 20.19531 c-4.0723 0 -7.0703 -2.8125 -7.0703 -7.2168 c0 -4.4629 3.0664 -7.2852 7.2168 -7.2852 c2.7246 0 4.9805 1.2012 6.2109 3.3203 l-2.5684 1.3672 c-0.74219 -1.4453 -2.0703 -2.1387 -3.6426 -2.1387 c-2.4414 0 -4.2773 1.6797 -4.2773 4.668 c0 2.8809 1.7188 4.7363 4.3848 4.7363 c1.8066 0 3.4668 -0.89844 3.8672 -2.959 l-3.8574 0 l0 -2.3535 l6.6309 0 l0 7.666 l-2.3047 0 l0 -1.9531 c-0.9082 1.3379 -2.4316 2.1484 -4.5898 2.1484 z M152.714865625 20 l0 -15 l2.8418 0 l0 15 l-2.8418 0 z M163.14451875 20.19531 c-3.1934 0 -5.498 -1.9434 -5.498 -5.2246 c0 -3.2617 2.2852 -5.2051 5.498 -5.2051 c3.2324 0 5.5078 1.9434 5.5078 5.2051 c0 3.2813 -2.2852 5.2246 -5.5078 5.2246 z M163.11521875 17.959 c1.6309 0 2.7441 -1.1914 2.7441 -2.9883 s-1.1133 -2.9883 -2.7441 -2.9883 c-1.5723 0 -2.6758 1.1914 -2.6758 2.9883 s1.1035 2.9883 2.6758 2.9883 z M176.640609375 9.766 c2.6367 0 4.8242 1.9531 4.8242 5.2344 s-2.1875 5.2344 -4.8242 5.2344 c-1.3867 0 -2.5977 -0.55664 -3.1641 -1.543 l-0.068359 1.3086 l-2.666 0 l0 -15 l2.8125 0 l0 6.1816 c0.58594 -0.9082 1.7578 -1.416 3.0859 -1.416 z M175.986309375 17.9004 c1.4941 0 2.666 -1.1035 2.666 -2.9004 c0 -1.8066 -1.1719 -2.9102 -2.666 -2.9102 c-1.4844 0 -2.6563 1.1523 -2.6563 2.9102 s1.1621 2.9004 2.6563 2.9004 z M191.81640625 17.2754 c0 1.2305 0.11719 2.0117 0.24414 2.4512 l0 0.27344 l-2.627 0 l-0.22461 -1.0938 c-0.75195 0.9082 -2.0508 1.2891 -3.2227 1.2891 c-1.582 0 -3.125 -0.70313 -3.125 -2.793 c0 -2.0801 1.5527 -2.7832 3.6523 -3.2422 l1.6504 -0.37109 c0.71289 -0.16602 0.9668 -0.41016 0.9668 -0.82031 c0 -0.98633 -0.89844 -1.2598 -1.6895 -1.2598 c-1.0156 0 -1.7871 0.40039 -1.9629 1.5332 l-2.4902 -0.44922 c0.41992 -2.0801 1.9434 -3.0273 4.6094 -3.0273 c2.0117 0 4.2188 0.5957 4.2188 3.623 l0 3.8867 z M186.86520625 18.291 c1.3379 0 2.4121 -0.88867 2.4121 -2.8809 l-2.3828 0.67383 c-0.78125 0.18555 -1.3477 0.45898 -1.3477 1.1328 c0 0.72266 0.5957 1.0742 1.3184 1.0742 z M194.550803125 20 l0 -15 l2.8418 0 l0 15 l-2.8418 0 z"
         id="path58"
         style="fill:#f76205;fill-opacity:1" />
    </g>
  </g>
</svg>
